<svg width="14" height="15" viewBox="0 0 14 15" fill="none" xmlns="http://www.w3.org/2000/svg">
	<path d="M13.0787 2.15872H9.9206V1.64988C9.9206 0.740132 9.17164 0 8.25104 0H5.24896C4.32836 0 3.5794 0.740132 3.5794 1.64988V2.15872H0.42129C0.18724 2.15872 0 2.34375 0 2.57504C0 2.80633 0.18724 2.99137 0.42129 2.99137H1.18273V12.7734C1.18273 14.0008 2.19383 15 3.43585 15H10.0641C11.3062 15 12.3173 14.0008 12.3173 12.7734V2.99137H13.0787C13.3128 2.99137 13.5 2.80633 13.5 2.57504C13.5 2.34375 13.3128 2.15872 13.0787 2.15872ZM4.42198 1.64988C4.42198 1.19963 4.79334 0.832648 5.24896 0.832648H8.25104C8.70666 0.832648 9.07802 1.19963 9.07802 1.64988V2.15872H4.42198V1.64988ZM11.4747 12.7734C11.4747 13.5413 10.8412 14.1674 10.0641 14.1674H3.43585C2.65881 14.1674 2.02531 13.5413 2.02531 12.7734V2.99137H11.4778V12.7734H11.4747Z" fill="#505B65" />
	<path d="M6.75039 12.6749C6.98444 12.6749 7.17168 12.4899 7.17168 12.2586V4.90045C7.17168 4.66916 6.98444 4.48413 6.75039 4.48413C6.51634 4.48413 6.3291 4.66916 6.3291 4.90045V12.2555C6.3291 12.4868 6.51634 12.6749 6.75039 12.6749Z" fill="#505B65" />
	<path d="M4.00137 12.2156C4.23542 12.2156 4.42266 12.0305 4.42266 11.7992V5.357C4.42266 5.12571 4.23542 4.94067 4.00137 4.94067C3.76732 4.94067 3.58008 5.12571 3.58008 5.357V11.7992C3.58008 12.0305 3.77044 12.2156 4.00137 12.2156Z" fill="#505B65" />
	<path d="M9.49941 12.2156C9.73346 12.2156 9.9207 12.0305 9.9207 11.7992V5.357C9.9207 5.12571 9.73346 4.94067 9.49941 4.94067C9.26536 4.94067 9.07812 5.12571 9.07812 5.357V11.7992C9.07812 12.0305 9.26536 12.2156 9.49941 12.2156Z" fill="#505B65" />
</svg>
