<svg width="23" height="23" viewBox="0 0 23 23" fill="none" xmlns="http://www.w3.org/2000/svg">
	<g clip-path="url(#clip0)">
		<path d="M5.83151 12.7282C5.01234 8.93883 4.19505 5.1559 3.36842 1.32793C2.62203 1.32793 1.91296 1.32793 1.20109 1.32793C0.9992 1.33484 0.797078 1.33116 0.595584 1.3169C0.430268 1.3074 0.275224 1.23477 0.163382 1.11444C0.0515394 0.994114 -0.00828835 0.835563 -0.00339414 0.672467C-0.00999498 0.509546 0.0474216 0.350393 0.156905 0.228131C0.266389 0.105869 0.419506 0.0299185 0.584388 0.016086C0.847962 -0.00276955 1.11234 -0.00829262 1.37649 -0.000461441C2.16953 -0.000461441 2.96257 -0.000461441 3.75468 -0.000461441C4.31447 -0.000461441 4.50107 0.151223 4.61769 0.696369C5.45551 4.57766 6.28929 8.45772 7.11903 12.3366C7.13489 12.4101 7.16288 12.4818 7.20113 12.605H19.7601C20.3404 9.91972 20.9151 7.26202 21.5038 4.54181H8.29086C8.11992 4.54889 7.94868 4.54306 7.77865 4.52434C7.62305 4.49992 7.48132 4.42179 7.37878 4.30392C7.27623 4.18604 7.21955 4.03608 7.21886 3.88083C7.21945 3.72596 7.27514 3.5762 7.37623 3.45761C7.47732 3.33902 7.61741 3.25912 7.77212 3.2318C7.91064 3.21369 8.0505 3.20754 8.1901 3.21342H22.0916C22.8818 3.21985 23.1179 3.51127 22.9481 4.289C22.6788 5.53557 22.4098 6.77939 22.1411 8.02044C21.7604 9.78673 21.3807 11.5524 21.0019 13.3175C20.8974 13.801 20.6595 13.9794 20.0978 13.9803C17.5949 13.9803 15.092 13.9803 12.5891 13.9803C10.6457 13.9803 8.70231 13.9803 6.7589 13.9803C6.09181 13.9803 5.69156 14.359 5.70835 14.9437C5.70898 15.1602 5.78981 15.3691 5.93565 15.5311C6.0815 15.6931 6.28233 15.7971 6.50046 15.8235C6.6865 15.8409 6.87347 15.8467 7.06025 15.8409C11.1032 15.8409 15.1461 15.8409 19.1891 15.8409C19.3763 15.8336 19.5637 15.8441 19.7489 15.8722C19.9045 15.8971 20.0453 15.9774 20.1448 16.0979C20.2442 16.2184 20.2952 16.3707 20.2881 16.5258C20.2889 16.6728 20.2386 16.8156 20.1456 16.9305C20.0526 17.0454 19.9225 17.1255 19.7769 17.1574C19.6543 17.1836 19.5289 17.1944 19.4037 17.1896C15.1741 17.1896 10.9446 17.1896 6.71505 17.1896C5.48164 17.1896 4.55052 16.4054 4.37138 15.2379C4.24263 14.4004 4.53092 13.6999 5.19428 13.1593C5.37061 13.0168 5.574 12.901 5.83151 12.7282Z" fill="#505B65" />
		<path d="M6.62919 18.4648C7.0833 18.464 7.52752 18.5955 7.90594 18.8428C8.28437 19.0902 8.58008 19.4423 8.75587 19.8548C8.93166 20.2674 8.97967 20.722 8.89385 21.1614C8.80804 21.6007 8.59223 22.0053 8.2736 22.3241C7.95496 22.6429 7.54774 22.8617 7.10318 22.953C6.65862 23.0443 6.1966 23.0039 5.77525 22.8371C5.35391 22.6702 4.99207 22.3842 4.73529 22.0152C4.47851 21.6462 4.33825 21.2105 4.33218 20.7631C4.32873 20.4633 4.38553 20.1658 4.49931 19.8877C4.61308 19.6096 4.78158 19.3564 4.9951 19.1428C5.20862 18.9292 5.46293 18.7593 5.74339 18.6429C6.02384 18.5266 6.32489 18.466 6.62919 18.4648ZM7.58737 20.7254C7.58639 20.4786 7.48656 20.2421 7.30958 20.0673C7.1326 19.8926 6.89278 19.7938 6.64225 19.7923C6.45383 19.7912 6.26932 19.8453 6.11216 19.9478C5.955 20.0502 5.83228 20.1963 5.75957 20.3676C5.68687 20.5389 5.66746 20.7276 5.70381 20.9098C5.74016 21.092 5.83064 21.2594 5.96374 21.3908C6.09685 21.5222 6.26659 21.6117 6.45141 21.6479C6.63623 21.6841 6.82779 21.6653 7.00177 21.594C7.17575 21.5227 7.3243 21.4021 7.42857 21.2474C7.53283 21.0928 7.58811 20.9111 7.58737 20.7254Z" fill="#505B65" />
		<path d="M15.6837 20.7509C15.6798 20.3028 15.8108 19.8637 16.06 19.4889C16.3092 19.1141 16.6655 18.8205 17.0839 18.645C17.5024 18.4695 17.9642 18.4201 18.4111 18.503C18.8579 18.5859 19.2699 18.7974 19.5949 19.1107C19.92 19.4241 20.1435 19.8253 20.2374 20.2637C20.3313 20.7021 20.2912 21.1581 20.1223 21.5741C19.9534 21.9901 19.6632 22.3475 19.2884 22.6012C18.9136 22.8549 18.4708 22.9935 18.0161 22.9995C17.7122 23.0062 17.41 22.953 17.1272 22.843C16.8444 22.7331 16.5868 22.5685 16.3695 22.359C16.1522 22.1495 15.9796 21.8993 15.8618 21.6232C15.744 21.347 15.6835 21.0504 15.6837 20.7509ZM17.9648 21.6702C18.153 21.6738 18.3379 21.6223 18.4964 21.5224C18.6549 21.4224 18.7797 21.2784 18.8551 21.1085C18.9306 20.9387 18.9532 20.7506 18.9202 20.5681C18.8871 20.3856 18.7999 20.2168 18.6696 20.0831C18.5392 19.9494 18.3716 19.8567 18.1878 19.8169C18.004 19.7771 17.8124 19.7918 17.6371 19.8592C17.4619 19.9266 17.3108 20.0438 17.2031 20.1958C17.0953 20.3478 17.0358 20.5278 17.0318 20.7132C17.0319 20.9603 17.1291 21.1977 17.3031 21.3756C17.4771 21.5536 17.7143 21.6582 17.9648 21.6674V21.6702Z" fill="#505B65" />
	</g>
	<defs>
		<clipPath id="clip0">
			<rect width="23" height="23" fill="white" />
		</clipPath>
	</defs>
</svg>
