<svg width="20" height="20" viewBox="0 0 20 20" fill="none" xmlns="http://www.w3.org/2000/svg">
	<g clip-path="url(#clip0)">
		<path d="M19.8217 14.4726C19.768 14.3826 19.4355 13.6601 17.8354 12.1749C16.1602 10.6198 16.3852 10.8723 18.4029 8.1834C19.6317 6.54577 20.123 5.5457 19.9693 5.11817C19.823 4.71064 18.9192 4.81815 18.9192 4.81815L15.914 4.83565C15.914 4.83565 15.6914 4.80564 15.5252 4.9044C15.3639 5.00191 15.2602 5.22693 15.2602 5.22693C15.2602 5.22693 14.7839 6.49452 14.1488 7.5721C12.81 9.84602 12.2737 9.96603 12.0549 9.82477C11.5461 9.49599 11.6736 8.50217 11.6736 7.79712C11.6736 5.5932 12.0074 4.67438 11.0223 4.43687C10.6948 4.35811 10.4548 4.30561 9.61849 4.29686C8.54591 4.28561 7.6371 4.30061 7.12331 4.55188C6.78078 4.71939 6.51701 5.09317 6.67827 5.11442C6.87704 5.14067 7.32707 5.23568 7.56584 5.5607C7.87461 5.97948 7.86336 6.92205 7.86336 6.92205C7.86336 6.92205 8.04088 9.516 7.44958 9.83852C7.0433 10.0598 6.48701 9.6085 5.29317 7.5446C4.68188 6.48827 4.21934 5.31943 4.21934 5.31943C4.21934 5.31943 4.13059 5.10192 3.97182 4.98566C3.77931 4.8444 3.50929 4.79939 3.50929 4.79939L0.651577 4.8169C0.651577 4.8169 0.222796 4.8294 0.0652839 5.01566C-0.0747265 5.18192 0.0540331 5.52445 0.0540331 5.52445C0.0540331 5.52445 2.2917 10.7586 4.82439 13.3975C7.14831 15.8165 9.78601 15.6577 9.78601 15.6577H10.9811C10.9811 15.6577 11.3424 15.6177 11.5261 15.4189C11.6961 15.2364 11.6899 14.8939 11.6899 14.8939C11.6899 14.8939 11.6661 13.29 12.4112 13.0538C13.145 12.8212 14.0876 14.6039 15.0864 15.2902C15.8415 15.809 16.4152 15.6952 16.4152 15.6952L19.0867 15.6577C19.0867 15.6577 20.4843 15.5714 19.8217 14.4726Z" fill="#505B65" />
	</g>
	<defs>
		<clipPath id="clip0">
			<rect width="20" height="20" fill="white" />
		</clipPath>
	</defs>
</svg>
